<?xml version="1.0" encoding="UTF-8" standalone="no"?>
<!-- Created with Inkscape (http://www.inkscape.org/) -->

<svg
   xmlns:dc="http://purl.org/dc/elements/1.1/"
   xmlns:cc="http://creativecommons.org/ns#"
   xmlns:rdf="http://www.w3.org/1999/02/22-rdf-syntax-ns#"
   xmlns:svg="http://www.w3.org/2000/svg"
   xmlns="http://www.w3.org/2000/svg"
   xmlns:xlink="http://www.w3.org/1999/xlink"
   xmlns:sodipodi="http://sodipodi.sourceforge.net/DTD/sodipodi-0.dtd"
   xmlns:inkscape="http://www.inkscape.org/namespaces/inkscape"
   width="744.09448819"
   height="1052.3622047"
   id="svg6702"
   version="1.1"
   inkscape:version="0.48.3.1 r9886"
   sodipodi:docname="рисунок-2.svg">
  <defs
     id="defs6704">
    <linearGradient
       id="linearGradient7247">
      <stop
         style="stop-color:#000000;stop-opacity:1;"
         offset="0"
         id="stop7249" />
      <stop
         style="stop-color:#61c7ef;stop-opacity:1;"
         offset="1"
         id="stop7251" />
    </linearGradient>
    <linearGradient
       inkscape:collect="always"
       xlink:href="#linearGradient7247"
       id="linearGradient7253"
       x1="274.66403"
       y1="699.64618"
       x2="469.73163"
       y2="309.85544"
       gradientUnits="userSpaceOnUse" />
    <linearGradient
       inkscape:collect="always"
       xlink:href="#linearGradient7247"
       id="linearGradient7461"
       gradientUnits="userSpaceOnUse"
       x1="274.66403"
       y1="699.64618"
       x2="469.73163"
       y2="309.85544" />
    <filter
       inkscape:collect="always"
       id="filter7463">
      <feGaussianBlur
         inkscape:collect="always"
         stdDeviation="8.5532896"
         id="feGaussianBlur7465" />
    </filter>
    <linearGradient
       inkscape:collect="always"
       xlink:href="#linearGradient7247-0"
       id="linearGradient7461-4"
       gradientUnits="userSpaceOnUse"
       x1="274.66403"
       y1="699.64618"
       x2="469.73163"
       y2="309.85544" />
    <linearGradient
       id="linearGradient7247-0">
      <stop
         style="stop-color:#000000;stop-opacity:1;"
         offset="0"
         id="stop7249-0" />
      <stop
         style="stop-color:#61c7ef;stop-opacity:1;"
         offset="1"
         id="stop7251-4" />
    </linearGradient>
    <linearGradient
       y2="309.85544"
       x2="469.73163"
       y1="699.64618"
       x1="274.66403"
       gradientUnits="userSpaceOnUse"
       id="linearGradient7484"
       xlink:href="#linearGradient7247-0"
       inkscape:collect="always" />
    <filter
       inkscape:collect="always"
       id="filter7523">
      <feGaussianBlur
         inkscape:collect="always"
         stdDeviation="2.1927524"
         id="feGaussianBlur7525" />
    </filter>
    <linearGradient
       inkscape:collect="always"
       xlink:href="#linearGradient7247"
       id="linearGradient7536"
       gradientUnits="userSpaceOnUse"
       x1="274.66403"
       y1="699.64618"
       x2="469.73163"
       y2="309.85544" />
    <linearGradient
       inkscape:collect="always"
       xlink:href="#linearGradient7247-0"
       id="linearGradient7538"
       gradientUnits="userSpaceOnUse"
       x1="274.66403"
       y1="699.64618"
       x2="469.73163"
       y2="309.85544" />
  </defs>
  <sodipodi:namedview
     id="base"
     pagecolor="#ffffff"
     bordercolor="#666666"
     borderopacity="1.0"
     inkscape:pageopacity="0.0"
     inkscape:pageshadow="2"
     inkscape:zoom="0.7"
     inkscape:cx="424.22443"
     inkscape:cy="520"
     inkscape:document-units="px"
     inkscape:current-layer="layer1"
     showgrid="false"
     inkscape:window-width="1280"
     inkscape:window-height="776"
     inkscape:window-x="0"
     inkscape:window-y="24"
     inkscape:window-maximized="1" />
  <metadata
     id="metadata6707">
    <rdf:RDF>
      <cc:Work
         rdf:about="">
        <dc:format>image/svg+xml</dc:format>
        <dc:type
           rdf:resource="http://purl.org/dc/dcmitype/StillImage" />
        <dc:title></dc:title>
      </cc:Work>
    </rdf:RDF>
  </metadata>
  <g
     inkscape:label="Layer 1"
     inkscape:groupmode="layer"
     id="layer1">
    <rect
       style="opacity:0.50000000000000000;fill:none;stroke:none"
       id="rect7527"
       width="511.6142"
       height="511.6142"
       x="116.24014"
       y="270.37399"
       inkscape:export-filename="/media/USB-HDD/F/SMS Sieve/3_48.png"
       inkscape:export-xdpi="8.443862"
       inkscape:export-ydpi="8.443862" />
    <g
       id="g7529">
      <g
         style="stroke:none"
         transform="translate(-362.56538,265.26411)"
         id="g4173-1-8-8">
        <path
           sodipodi:type="arc"
           style="fill:#ffffff;fill-opacity:1;stroke:none"
           id="path2985-9-4-0-7-7-2"
           sodipodi:cx="361.42856"
           sodipodi:cy="503.79074"
           sodipodi:rx="221.42857"
           sodipodi:ry="217.14285"
           d="m 582.85713,503.79074 c 0,119.92469 -99.13695,217.14285 -221.42857,217.14285 -122.29163,0 -221.42858,-97.21816 -221.42858,-217.14285 0,-119.92469 99.13695,-217.14285 221.42858,-217.14285 122.29162,0 221.42857,97.21816 221.42857,217.14285 z"
           transform="matrix(1.0093548,0,0,1.0292764,369.80297,-257.62294)" />
        <path
           style="font-size:889.99377441px;font-style:normal;font-variant:normal;font-weight:normal;font-stretch:normal;text-align:start;line-height:125%;letter-spacing:0px;word-spacing:0px;writing-mode:lr-tb;text-anchor:start;fill:#61c7ef;fill-opacity:1;stroke:none;font-family:Sans;-inkscape-font-specification:Sans"
           d="m 596.85592,85.483949 c -34.11914,26.802151 -60.2099,63.332541 -74.15625,105.406251 7.01732,14.56077 16.35321,27.40026 28.03125,38.5 29.26074,27.81264 76.61876,48.24454 142.09374,61.28125 l 53.46875,10.40625 c 44.61523,8.98134 76.6202,22.47564 96.03125,40.43749 19.69997,17.96234 29.56208,42.88194 29.5625,74.75 -9e-5,7.95006 -0.64576,15.50321 -1.9375,22.65625 36.18591,-27.57581 63.68688,-65.9459 77.71875,-110.3125 -7.6136,-16.84196 -17.94168,-31.81634 -31.03125,-44.90624 -30.99957,-31.57822 -79.24434,-53.60455 -144.71875,-66.0625 l -53,-10.84375 c -48.09233,-8.98067 -80.83625,-20.73277 -98.21875,-35.21875 -17.09312,-14.77486 -25.62514,-36.50561 -25.62499,-65.1875 -3e-5,-7.340346 0.59248,-14.287151 1.78125,-20.906251 z"
           id="text2987-1-0-7-1-2-1"
           inkscape:connector-curvature="0" />
      </g>
      <path
         sodipodi:type="arc"
         style="fill:none;stroke:url(#linearGradient7536);stroke-width:4.79879904;stroke-linecap:round;stroke-linejoin:round;stroke-miterlimit:4;stroke-opacity:1;stroke-dasharray:none;filter:url(#filter7463)"
         id="path2985-9-4-0-7-7-2-4"
         sodipodi:cx="361.42856"
         sodipodi:cy="503.79074"
         sodipodi:rx="221.42857"
         sodipodi:ry="217.14285"
         d="m 582.85713,503.79074 c 0,119.92469 -99.13695,217.14285 -221.42857,217.14285 -122.29163,0 -221.42858,-97.21816 -221.42858,-217.14285 0,-119.92469 99.13695,-217.14285 221.42858,-217.14285 122.29162,0 221.42857,97.21816 221.42857,217.14285 z"
         transform="matrix(0.9956941,0,0,1.015346,12.174958,14.659178)" />
      <path
         sodipodi:type="arc"
         style="opacity:0.5;fill:none;stroke:url(#linearGradient7538);stroke-width:1.98911548;stroke-linecap:round;stroke-linejoin:round;stroke-miterlimit:4;stroke-opacity:1;stroke-dasharray:none;filter:url(#filter7523)"
         id="path2985-9-4-0-7-7-2-4-1"
         sodipodi:cx="361.42856"
         sodipodi:cy="503.79074"
         sodipodi:rx="221.42857"
         sodipodi:ry="217.14285"
         d="m 582.85713,503.79074 c 0,119.92469 -99.13695,217.14285 -221.42857,217.14285 -122.29163,0 -221.42858,-97.21816 -221.42858,-217.14285 0,-119.92469 99.13695,-217.14285 221.42858,-217.14285 122.29162,0 221.42857,97.21816 221.42857,217.14285 z"
         transform="matrix(0.9956941,0,0,1.015346,12.174958,14.659178)" />
    </g>
  </g>
</svg>
